<?xml version="1.0" encoding="utf-8"?>
<!-- Generator: Adobe Illustrator 16.0.0, SVG Export Plug-In . SVG Version: 6.00 Build 0)  -->
<!DOCTYPE svg PUBLIC "-//W3C//DTD SVG 1.1//EN" "http://www.w3.org/Graphics/SVG/1.1/DTD/svg11.dtd">
<svg version="1.1" id="Layer_1" xmlns="http://www.w3.org/2000/svg" xmlns:xlink="http://www.w3.org/1999/xlink" x="0px" y="0px"
	 width="20px" height="20px" fill="#ffffff" viewBox="50.5 159.5 494 316.25" enable-background="new 50.5 159.5 494 316.25"
	 xml:space="preserve">
<path d="M387.778,179.25c0-7.042,5.71-12.75,12.75-12.75h127.688c7.115,0,12.853,5.822,12.748,12.936l-1.861,127.687
	c-0.103,7.041-5.894,12.666-12.934,12.564l-25.498-0.372c-7.04-0.102-12.666-5.893-12.562-12.934l0.755-51.905l-155.82,155.822
	c-4.979,4.978-13.053,4.978-18.03,0l-80.235-80.236L96.076,468.767c-4.979,4.978-13.052,4.978-18.031,0l-18.031-18.033
	c-4.979-4.978-4.979-13.051,0-18.031l165.75-165.749c4.979-4.979,13.052-4.979,18.031,0l80.233,80.235L453.717,217.5h-53.188
	c-7.04,0-12.75-5.708-12.75-12.75V179.25z"/>
</svg>
