<?xml version="1.0" encoding="utf-8"?>
<!-- Generator: Adobe Illustrator 16.0.0, SVG Export Plug-In . SVG Version: 6.00 Build 0)  -->
<!DOCTYPE svg PUBLIC "-//W3C//DTD SVG 1.1//EN" "http://www.w3.org/Graphics/SVG/1.1/DTD/svg11.dtd">
<svg version="1.1" id="Layer_1" xmlns="http://www.w3.org/2000/svg" xmlns:xlink="http://www.w3.org/1999/xlink" x="0px" y="0px"
	 width="30px" height="30px" viewBox="65.413 89.5 471.004 505.137" enable-background="new 65.413 89.5 471.004 505.137"
	 xml:space="preserve">
<path d="M446.589,371.462l-0.738,0.043c-3.064,0-5.563-2.5-5.563-5.564V131.813H102.101v390.478H320.93
	c1.739,0,3.26,0.805,4.281,2.021c0.283,0.348,0.522,0.717,0.718,1.108v0.021c0.348,0.695,0.543,1.5,0.543,2.325
	c0.326,4.086,1.435,7.759,3.282,10.954l0.151,0.261c1.826,3.086,4.434,5.847,7.759,8.237c1.674,0.956,2.804,2.76,2.804,4.847
	c0,3.063-2.499,5.563-5.563,5.563H96.491l-0.63-0.044c-10.236-0.239-17.625-2.499-22.71-7.324
	c-5.173-4.89-7.542-11.996-7.694-21.819l-0.043-0.631V126.207l0.043-0.63c0.239-10.149,2.586-17.864,7.563-23.254
	c5.085-5.499,12.54-8.28,22.841-8.432l0.63-0.043h349.335l0.564,0.021c9.823,0.043,16.996,2.413,21.973,7.824
	c4.824,5.238,7.084,12.975,7.215,23.885l0.044,0.608v239.693c0,3.064-2.5,5.563-5.563,5.563l-0.739-0.043
	c-3.281-0.174-6.911-0.261-10.888-0.261c-4.064,0-8.02,0.087-11.845,0.261L446.589,371.462z M464.52,360.162v-233.89l0.021-0.521
	c-0.087-7.998-1.478-13.344-4.325-16.452c-2.694-2.934-7.237-4.216-13.801-4.26l-0.564,0.022H96.515l-0.521-0.022
	c-7.042,0.109-11.866,1.717-14.778,4.869c-3.021,3.281-4.477,8.563-4.651,15.908l0.022,0.457v401.606l-0.022,0.521
	c0.109,6.672,1.435,11.192,4.26,13.887c2.934,2.782,7.911,4.086,15.235,4.282l0.457-0.022h225.043
	c-0.435-0.63-0.825-1.261-1.217-1.912l-0.174-0.305c-1.934-3.347-3.303-6.976-4.086-10.888H96.536c-3.064,0-5.563-2.499-5.563-5.563
	V126.25c0-3.064,2.499-5.563,5.563-5.563h349.335c3.064,0,5.563,2.499,5.563,5.563v233.934c2.478-0.065,4.825-0.108,7.02-0.108
	c2.021,0,4.021,0.043,6.063,0.087L464.52,360.162z M376.413,203.595c8.237,0.261,13.714,4.564,16.235,9.954
	c1.021,2.217,1.564,4.651,1.586,7.063c0,2.412-0.521,4.868-1.564,7.084c-2.521,5.368-7.954,9.606-16.257,9.888l-0.673,0.043H169.212
	l-0.674-0.043c-8.302-0.282-13.757-4.521-16.256-9.888c-1.043-2.217-1.564-4.672-1.564-7.084c0-2.435,0.521-4.868,1.586-7.085
	c2.542-5.39,7.998-9.671,16.235-9.932l0.673-0.043H375.74L376.413,203.595z M376.175,226.523c3.434-0.152,5.563-1.63,6.454-3.499
	c0.348-0.739,0.522-1.565,0.522-2.369c0-0.804-0.196-1.651-0.544-2.412c-0.891-1.891-3.043-3.412-6.433-3.564l-0.435,0.022H169.212
	l-0.435-0.022c-3.39,0.152-5.542,1.674-6.433,3.564c-0.348,0.782-0.543,1.608-0.543,2.412c0,0.804,0.174,1.63,0.521,2.369
	c0.87,1.869,3,3.347,6.455,3.499l0.435-0.022h206.528L376.175,226.523z M376.413,309.411c8.237,0.261,13.714,4.564,16.235,9.954
	c1.021,2.217,1.564,4.651,1.586,7.063c0,2.434-0.521,4.868-1.564,7.085c-2.521,5.39-7.954,9.606-16.257,9.888l-0.673,0.043H169.212
	l-0.674-0.043c-8.302-0.283-13.757-4.499-16.256-9.888c-1.043-2.217-1.564-4.673-1.564-7.085s0.543-4.846,1.586-7.063
	c2.521-5.412,7.998-9.693,16.235-9.954l0.673-0.043H375.74L376.413,309.411z M376.175,332.339c3.434-0.152,5.585-1.63,6.454-3.499
	c0.348-0.739,0.522-1.565,0.522-2.369s-0.196-1.651-0.544-2.412c-0.891-1.891-3.043-3.412-6.433-3.564l-0.435,0.022H169.212
	l-0.435-0.022c-3.39,0.152-5.542,1.674-6.433,3.564c-0.348,0.761-0.543,1.586-0.543,2.412c0,0.804,0.174,1.63,0.521,2.369
	c0.87,1.869,3,3.347,6.455,3.499l0.435-0.022h206.528L376.175,332.339z M259.099,416.511c8.237,0.261,13.692,4.542,16.235,9.954
	c1.043,2.217,1.586,4.651,1.586,7.085c0,2.412-0.521,4.868-1.564,7.085c-2.521,5.367-7.955,9.605-16.257,9.888l-0.673,0.044H169.19
	l-0.674-0.044c-8.302-0.282-13.757-4.521-16.256-9.888c-1.043-2.217-1.564-4.673-1.564-7.085c0-2.435,0.521-4.868,1.586-7.085
	c2.542-5.39,7.998-9.671,16.234-9.932l0.674-0.044h89.235l0.673,0.044V416.511z M258.86,439.439
	c3.434-0.152,5.585-1.652,6.455-3.499c0.348-0.739,0.522-1.564,0.522-2.369c0-0.804-0.174-1.651-0.543-2.391
	c-0.891-1.912-3.021-3.434-6.433-3.586l-0.435,0.021H169.19l-0.435-0.021c-3.391,0.152-5.542,1.674-6.433,3.564
	c-0.348,0.761-0.543,1.608-0.543,2.412c0,0.805,0.174,1.63,0.521,2.369c0.869,1.869,2.999,3.347,6.455,3.499l0.435-0.021h89.235
	L258.86,439.439z M404.905,594.637c-6.324,0-12.084-2.586-16.213-6.715c-4.13-4.13-6.716-9.889-6.716-16.213
	s2.587-12.084,6.716-16.213c4.129-4.13,9.888-6.716,16.213-6.716c6.324,0,12.062,2.586,16.213,6.716
	c4.129,4.129,6.715,9.888,6.715,16.213c0,6.324-2.586,12.083-6.715,16.213C416.989,592.051,411.229,594.637,404.905,594.637z
	 M396.56,580.054c2.13,2.13,5.086,3.456,8.346,3.456s6.216-1.326,8.346-3.456s3.455-5.085,3.455-8.345s-1.325-6.216-3.455-8.346
	s-5.086-3.456-8.346-3.456s-6.216,1.326-8.346,3.456s-3.455,5.086-3.455,8.346S394.43,577.925,396.56,580.054z M480.754,594.637
	c-6.324,0-12.083-2.586-16.213-6.715c-4.129-4.13-6.715-9.889-6.715-16.213s2.586-12.084,6.715-16.213
	c4.13-4.13,9.889-6.716,16.213-6.716s12.084,2.586,16.213,6.716c4.13,4.129,6.716,9.888,6.716,16.213
	c0,6.324-2.586,12.083-6.716,16.213C492.838,592.051,487.079,594.637,480.754,594.637z M472.409,580.054
	c2.13,2.13,5.085,3.456,8.345,3.456c3.261,0,6.216-1.326,8.346-3.456s3.456-5.085,3.456-8.345s-1.326-6.216-3.456-8.346
	s-5.085-3.456-8.346-3.456c-3.26,0-6.216,1.326-8.345,3.456c-2.13,2.13-3.456,5.086-3.456,8.346S470.279,577.925,472.409,580.054z
	 M399.714,542.804c-8.019-0.391-13.062-3.347-16.799-8.823c-2.673-3.934-4.368-9.063-5.977-15.518h-4.086
	c-1.348,0-2.564-0.478-3.542-1.282l-0.022-0.021l-0.087-0.065l-0.021-0.021l-0.087-0.065l-0.021-0.021l-0.087-0.065l-0.326-0.326
	l-0.065-0.087l-0.021-0.021l-0.065-0.087l-0.021-0.021l-0.065-0.087l-0.021-0.022l-0.065-0.087l-0.021-0.021l-0.065-0.087
	l-0.021-0.021l-0.065-0.087l-0.065-0.108l-0.021-0.044l-0.195-0.348l-0.065-0.131l-0.043-0.064l-0.022-0.044l-0.087-0.195
	l-0.021-0.065l-0.044-0.065l-0.108-0.325l-0.13-0.457l-0.044-0.13c-4.281-15.909-8.649-32.317-13.083-49.27
	c-4.368-16.733-8.454-32.621-12.279-47.725c-0.739-1.63-2.717-2.521-6.194-3.021c-5.454-0.782-13.561-0.521-24.623-0.108
	c-3.064,0.108-5.629-2.282-5.737-5.347v-0.282l-0.174-7.802l0.174-7.65l0.021-0.261v-0.021l0.044-0.261v-0.022l0.043-0.239v-0.022
	l0.065-0.239v-0.022l0.043-0.108l0.087-0.261v-0.021l0.087-0.239v-0.021l0.217-0.457v-0.021l0.174-0.326l0.021-0.043l0.196-0.304
	l0.021-0.022l0.305-0.391l0.021-0.021l0.152-0.174l0.108-0.109l0.174-0.152l0.021-0.021l0.087-0.065l0.108-0.087l0.022-0.021
	l0.087-0.065l0.021-0.021l0.087-0.065l0.021-0.021l0.087-0.065l0.021-0.021l0.088-0.065l0.021-0.021l0.087-0.043l0.021-0.022
	l0.087-0.043l0.021-0.021l0.087-0.043l0.022-0.022l0.087-0.043l0.021-0.021l0.087-0.043l0.021-0.022l0.087-0.043l0.021-0.021
	l0.087-0.043l0.022-0.022l0.108-0.043l0.021-0.021l0.108-0.044l0.022-0.021l0.108-0.043h0.021l0.109-0.043h0.043l0.108-0.043
	l0.022-0.022l0.108-0.021l0.021-0.022l0.108-0.021h0.022l0.108-0.022l0.021-0.021l0.108-0.022h0.022l0.108-0.021h0.021l0.108-0.022
	h0.022l0.108-0.021h0.021l0.109-0.022h0.869c21.776-0.261,34.381,0.043,42.835,4.456c8.433,4.412,11.953,11.779,14.475,24.841
	h162.369c3.064,0,5.563,2.499,5.563,5.563c0,0.608-0.087,1.173-0.261,1.717c-4.063,17.82-7.976,34.077-11.692,48.747
	c-3.738,14.734-7.454,28.448-11.084,41.075c-0.478,2.586-2.738,4.563-5.477,4.563H388.308c1.086,3.978,2.238,7.106,3.716,9.302
	c1.63,2.412,4.043,3.76,8.02,3.978h103.556c3.064,0,5.564,2.499,5.564,5.563s-2.5,5.563-5.564,5.563H400.327l-0.718-0.043
	L399.714,542.804z M316.477,398.517l-0.043,1.935l0.043,2.151c8.89-0.282,15.734-0.348,20.95,0.391
	c7.911,1.131,12.648,4.021,15.018,10.085l0.065,0.13l0.261,0.782l0.021,0.131c4.107,16.256,8.216,32.229,12.279,47.813
	c3.716,14.214,7.736,29.361,12.04,45.378h126.723c3.174-11.171,6.499-23.58,9.954-37.207c3.369-13.321,6.781-27.405,10.192-42.183
	H363.938c-2.934,0-5.347-2.282-5.542-5.173c-1.978-11.996-4.129-18.233-9.389-20.994c-5.672-2.955-15.647-3.39-32.513-3.26
	L316.477,398.517z"/>
</svg>
