<?xml version="1.0" encoding="utf-8"?>
<!-- Generator: Adobe Illustrator 16.0.0, SVG Export Plug-In . SVG Version: 6.00 Build 0)  -->
<!DOCTYPE svg PUBLIC "-//W3C//DTD SVG 1.1//EN" "http://www.w3.org/Graphics/SVG/1.1/DTD/svg11.dtd">
<svg version="1.1" id="Layer_1" xmlns="http://www.w3.org/2000/svg" xmlns:xlink="http://www.w3.org/1999/xlink" x="0px" y="0px"
	 width="30px" height="30px" viewBox="36.653 33.5 544.847 573" enable-background="new 36.653 33.5 544.847 573"
	 xml:space="preserve">
<g>
	<g>
		<g>
			<path d="M563.291,68.664c0,6.395,0,12.85,0,19.245c0,16.854,0,33.708,0,50.562c0,23.727,0,47.454,0,71.181
				c0,27.014,0,54.028,0,81.042c0,26.715,0,53.431,0,80.146c0,22.89,0,45.721,0,68.61c0,15.42,0,30.84,0,46.259
				c0,9.323,1.554,20.261-5.559,27.552c-4.004,4.124-9.203,6.037-14.881,6.097c-2.451,0-4.961,0-7.411,0
				c-10.817,0-21.695,0-32.513,0c-23.069,0-46.139,0-69.209,0c-1.434,0-2.868,0-4.303,0c1.733,2.988,3.467,5.977,5.14,8.965
				c22.532-38.729,26.655-87.019,10.28-128.795c-13.807-35.322-40.88-64.846-75.305-80.923
				c-35.441-16.615-76.979-18.826-113.914-5.438c-35.501,12.85-65.563,39.206-82.537,72.974
				c-19.723,39.326-20.978,85.943-3.586,126.404c2.331,5.438,5.021,10.698,7.949,15.778c1.733-2.988,3.466-5.977,5.14-8.965
				c-16.734,0-33.469,0-50.203,0c-20.56,0-41.119,0-61.678,0c-2.928,0-5.737-0.12-8.606-1.076
				c-7.053-2.331-12.372-8.965-13.268-16.315c-0.239-2.212-0.12-4.482-0.12-6.694c0-10.877,0-21.694,0-32.572
				c0-19.005,0-38.011,0-57.017c0-24.145,0-48.29,0-72.495c0-25.998,0-52.056,0-78.054c0-24.862,0-49.785,0-74.647
				c0-20.619,0-41.298,0-61.917c0-13.328,0-26.655,0-39.983c0-2.929,0-5.917,0-8.846c0-8.248,4.064-15.957,11.894-19.364
				c6.215-2.689,14.881-1.614,21.516-1.614c13.686,0,27.432,0,41.119,0c20.44,0,40.939,0,61.379,0c24.384,0,48.828,0,73.213,0
				c26.177,0,52.354,0,78.532,0c25.102,0,50.143,0,75.244,0c21.516,0,43.092,0,64.607,0c15.479,0,31.018,0,46.497,0
				c6.754,0,13.567-0.06,20.32,0C554.207,48.941,563.111,57.487,563.291,68.664c0.119,7.71,12.072,7.71,11.953,0
				c-0.299-17.511-14.344-31.556-31.855-31.795c-1.853,0-3.705,0-5.498,0c-11.116,0-22.293,0-33.409,0c-18.767,0-37.532,0-56.299,0
				c-23.906,0-47.753,0-71.659,0c-26.297,0-52.534,0-78.831,0c-25.998,0-51.996,0-77.994,0c-23.069,0-46.079,0-69.148,0
				c-17.392,0-34.784,0-52.116,0c-9.204,0-18.348,0-27.552,0c-6.156,0-12.132,0.957-17.631,3.945
				C42.732,46.55,36.875,57.727,36.815,69.5c0,8.307,0,16.615,0,24.922c0,17.511,0,35.082,0,52.594c0,23.488,0,47.035,0,70.523
				c0,26.177,0,52.295,0,78.472c0,25.759,0,51.518,0,77.277c0,22.054,0,44.047,0,66.101c0,15.062,0,30.182,0,45.243
				c0,8.307-1.016,18.049,2.032,25.938c3.526,9.145,10.877,16.197,20.141,19.245c3.765,1.195,7.65,1.494,11.594,1.494
				c8.009,0,16.077,0,24.086,0c24.444,0,48.828,0,73.272,0c4.901,0,9.802,0,14.702,0c4.542,0,7.411-5.08,5.14-8.965
				c-20.978-36.099-24.325-80.325-9.204-119.232c12.611-32.393,38.011-58.989,69.269-73.811
				c32.512-15.42,70.822-16.914,104.65-4.841c32.751,11.654,60.064,36.218,75.782,67.117c18.109,35.561,19.544,78.831,3.766,115.468
				c-2.271,5.259-4.901,10.339-7.77,15.3c-2.271,3.944,0.598,8.965,5.14,8.965c18.229,0,36.397,0,54.626,0
				c19.723,0,39.386,0.179,59.108,0c17.57-0.18,31.854-14.165,32.094-31.796c0-1.912,0-3.824,0-5.737c0-12.61,0-25.161,0-37.771
				c0-21.217,0-42.434,0-63.591c0-26.177,0-52.354,0-78.532c0-27.552,0-55.164,0-82.715c0-25.221,0-50.442,0-75.664
				c0-19.125,0-38.19,0-57.315c0-9.443,0-18.826,0-28.269c0-0.418,0-0.837,0-1.255C575.244,61.014,563.291,60.954,563.291,68.664z"
				/>
		</g>
	</g>
	<g>
		<g>
			<path d="M366.423,42.845c0,18.408,0,36.816,0,55.224c0,29.106,0,58.212,0,87.317c0,6.694,0,13.447,0,20.141
				c2.988-1.733,5.977-3.466,8.965-5.14c-19.603-10.28-39.146-20.5-58.749-30.779c-2.511-1.315-5.021-2.75-7.65-4.004
				c-3.944-1.913-7.411,0.657-10.817,2.51c-11.296,5.917-22.651,11.833-33.947,17.81c-9.204,4.841-18.467,9.682-27.671,14.523
				c2.988,1.733,5.977,3.466,8.965,5.14c0-18.408,0-36.816,0-55.224c0-29.106,0-58.212,0-87.317c0-6.694,0-13.447,0-20.141
				c-1.972,1.972-4.004,4.004-5.977,5.977c15.001,0,30.002,0,45.003,0c23.787,0,47.573,0,71.36,0c5.498,0,10.997,0,16.436,0
				c7.71,0,7.71-11.953,0-11.953c-15.001,0-30.002,0-45.004,0c-23.786,0-47.573,0-71.36,0c-5.499,0-10.997,0-16.436,0
				c-3.227,0-5.977,2.749-5.977,5.977c0,18.408,0,36.815,0,55.223c0,29.106,0,58.212,0,87.318c0,6.694,0,13.447,0,20.141
				c0,4.662,5.021,7.231,8.965,5.14c19.364-10.16,38.668-20.261,58.033-30.421c2.809-1.434,5.558-2.928,8.367-4.363
				c-2.032,0-4.004,0-6.037,0c19.364,10.16,38.668,20.261,58.033,30.421c2.809,1.434,5.558,2.928,8.367,4.363
				c3.944,2.092,8.965-0.478,8.965-5.14c0-18.408,0-36.816,0-55.224c0-29.106,0-58.212,0-87.317c0-6.694,0-13.447,0-20.141
				C378.376,35.195,366.423,35.195,366.423,42.845z"/>
		</g>
	</g>
	<g>
		<g>
			<path d="M442.923,453.256c-0.119,32.393-11.595,64.248-32.751,88.931c-18.707,21.695-43.749,37.294-71.6,44.107
				c-28.448,6.992-59.168,4.542-86.182-6.933c-26.118-11.177-48.47-30.541-63.292-54.746
				c-16.675-27.313-23.428-60.363-18.468-91.979c4.004-25.699,15.24-50.024,32.453-69.567
				c17.093-19.364,39.326-33.768,64.128-41.059c25.759-7.59,53.55-7.411,79.189,0.478c50.203,15.419,87.915,59.825,95.267,111.762
				C442.564,440.466,442.923,446.86,442.923,453.256c0,7.709,11.953,7.709,11.953,0c-0.06-28.628-8.308-57.017-23.966-81.042
				c-15.24-23.369-37.055-42.494-62.455-54.088c-26.775-12.252-56.419-16.316-85.524-11.894
				c-27.911,4.184-54.208,16.794-75.365,35.381c-20.978,18.408-36.517,42.852-44.406,69.627c-9.383,31.795-7.77,66.878,4.722,97.537
				c12.072,29.524,33.17,54.686,60.363,71.42c26.895,16.556,59.168,24.146,90.604,21.337c31.496-2.81,61.319-15.539,85.166-36.278
				c24.922-21.694,42.314-51.996,48.291-84.568c1.673-9.024,2.51-18.229,2.569-27.432
				C454.876,445.546,442.923,445.546,442.923,453.256z"/>
		</g>
	</g>
	<g>
		<g>
			<path d="M222.627,459.172c15.061,15.062,30.182,30.182,45.243,45.243c2.151,2.151,4.243,4.243,6.395,6.395
				c2.271,2.271,6.156,2.271,8.427,0c12.013-12.013,24.086-24.085,36.099-36.099c19.185-19.185,38.31-38.31,57.494-57.494
				c4.363-4.363,8.726-8.726,13.089-13.089c5.438-5.438-2.988-13.925-8.427-8.427c-12.013,12.013-24.086,24.086-36.099,36.099
				c-19.185,19.185-38.31,38.31-57.495,57.494c-4.363,4.363-8.726,8.726-13.088,13.089c2.809,0,5.618,0,8.427,0
				c-15.061-15.061-30.182-30.182-45.243-45.242c-2.151-2.152-4.243-4.244-6.395-6.396
				C225.615,445.247,217.128,453.674,222.627,459.172L222.627,459.172z"/>
		</g>
	</g>
</g>
</svg>
