<?xml version="1.0" encoding="utf-8"?>
<!-- Generator: Adobe Illustrator 16.0.0, SVG Export Plug-In . SVG Version: 6.00 Build 0)  -->
<!DOCTYPE svg PUBLIC "-//W3C//DTD SVG 1.1//EN" "http://www.w3.org/Graphics/SVG/1.1/DTD/svg11.dtd">
<svg version="1.1" id="Layer_1" xmlns="http://www.w3.org/2000/svg" xmlns:xlink="http://www.w3.org/1999/xlink" x="0px" y="0px"
	 width="30px" height="30px" viewBox="55.5 76.5 490 529.57" enable-background="new 55.5 76.5 490 529.57"
	 xml:space="preserve">
<g>
	<path d="M272.77,354.315c0.391,0.152,0.804,0.217,1.195,0.37C273.574,354.532,273.14,354.467,272.77,354.315z"/>
	<path d="M282.245,357.158c0.108,0.021,0.217,0.021,0.326,0.065C282.462,357.18,282.354,357.18,282.245,357.158z"/>
	<path d="M273.966,354.682c2.673,0.957,5.412,1.826,8.28,2.478C279.378,356.486,276.64,355.639,273.966,354.682z"/>
	<path d="M302.697,359.333c-6.824,0.043-13.67-0.674-20.125-2.13C289.027,358.66,295.851,359.377,302.697,359.333z"/>
	<path d="M264.269,350.337c2.651,1.521,5.498,2.847,8.497,3.978C269.767,353.184,266.92,351.858,264.269,350.337z"/>
	<path d="M291.848,602.264c3.434,0.392,7.02,0.544,10.628,0.479C298.933,602.764,295.369,602.634,291.848,602.264z"/>
	<path d="M273.966,357.942c-0.37,0-0.739-0.065-1.108-0.195c-0.022,0-1.217-0.37-1.239-0.391c-1.304-0.5-2.108-1.739-2.108-3.042
		c0-0.392,0.065-0.783,0.218-1.152c0.63-1.695,2.521-2.542,4.216-1.912l-1.152,3.064l1.478-2.978
		c0.087,0.021,0.739,0.217,0.826,0.261c1.326,0.478,2.173,1.739,2.152,3.086c0,0.37-0.065,0.739-0.196,1.108
		C276.552,357.117,275.313,357.942,273.966,357.942L273.966,357.942z"/>
	<path d="M281.855,360.396l0.022-0.239l-0.043,0.239c-1.761-0.413-3.021-2.195-2.608-3.955c0.413-1.761,2.043-2.869,3.76-2.478
		L281.855,360.396z"/>
	<path d="M282.245,360.418c-0.239,0-0.479-0.022-0.739-0.087c-1.478-0.348-2.934-0.739-4.368-1.174
		c-1.456-0.435-2.869-0.913-4.281-1.413c-1.695-0.608-2.586-2.478-1.978-4.173c0.608-1.695,2.478-2.586,4.172-1.978
		c1.261,0.457,2.543,0.87,3.825,1.282c1.326,0.413,2.695,0.761,4.064,1.087c1.76,0.413,2.869,2.151,2.456,3.912
		C285.092,359.397,283.745,360.418,282.245,360.418L282.245,360.418z"/>
	<path d="M302.085,362.616c-6.955,0-13.757-0.739-20.233-2.217c-1.76-0.391-2.869-2.152-2.478-3.912
		c0.413-1.76,2.152-2.869,3.912-2.478c6.172,1.391,12.691,1.913,19.125,2.043h0.065h0.065h0.065h0.065h0.021
		c1.804,0,3.26,1.456,3.282,3.26v0.022c0,1.804-1.456,3.26-3.26,3.282H302.085L302.085,362.616z"/>
	<path d="M272.77,357.598c-0.391,0-0.761-0.065-1.152-0.217c-0.021,0-0.021,0-0.043-0.022c-3.195-1.195-6.194-2.608-8.932-4.172
		c-1.065-0.609-1.652-1.695-1.652-2.847c0-0.543,0.13-1.108,0.435-1.63c0.913-1.565,2.891-2.108,4.477-1.217
		c0.021,0.022,0.043,0.022,0.043,0.022s0.022,0,0.022,0.021c2.412,1.369,5.107,2.63,7.976,3.716c1.695,0.63,2.543,2.521,1.913,4.216
		C275.334,356.772,274.096,357.598,272.77,357.598L272.77,357.598z"/>
	<path d="M302.085,362.594c-14.278,0-28.579-3.151-39.467-9.454L79.234,247.258c-11.214-6.477-17.408-15.278-17.408-24.797
		c-0.022-9.432,6.063-18.168,17.125-24.602L261.206,91.934c21.667-12.583,57.005-12.605,78.803,0l183.383,105.881h0.022
		c11.192,6.477,17.386,15.278,17.386,24.775c0.021,9.454-6.063,18.212-17.147,24.646L341.377,353.162
		C330.576,359.442,316.341,362.594,302.085,362.594L302.085,362.594z M300.563,88.93c-13.083,0-26.145,2.891-36.077,8.65
		L82.211,203.528c-8.954,5.194-13.866,11.931-13.866,18.929c0.021,7.084,5.042,13.866,14.148,19.125l183.383,105.881
		c19.972,11.54,52.376,11.562,72.2,0.022l182.298-105.926c8.954-5.216,13.888-11.953,13.888-18.973
		c-0.022-7.084-5.021-13.866-14.127-19.125L336.752,97.602c-9.998-5.781-23.103-8.671-36.186-8.671L300.563,88.93z"/>
	<path d="M301.523,606.069c-6.672,0-13.41-0.695-19.864-2.13h-0.043c-1.76-0.391-2.869-2.13-2.478-3.911
		c0.391-1.761,2.195-2.869,3.89-2.5c5.303,1.152,10.801,1.826,16.387,1.956V359.336c0-1.804,1.456-3.26,3.26-3.282
		c13.518-0.087,26.102-3.129,35.468-8.563l182.231-105.948c8.911-5.238,13.845-11.91,13.888-18.799v-0.087
		c0-1.804,1.478-3.26,3.281-3.26c1.805,0,3.261,1.456,3.261,3.282v0.087l-0.652,243.387c0,9.389-6.085,18.104-17.125,24.537
		L340.772,596.66C330.188,602.789,315.997,606.07,301.523,606.069L301.523,606.069z M305.957,362.533v236.888
		c11.736-0.564,22.95-3.478,31.513-8.432l182.253-105.948c8.955-5.217,13.888-11.932,13.888-18.887l0.608-227.391
		c-2.716,3.086-6.259,5.933-10.54,8.454h-0.021L341.426,353.166C331.863,358.729,319.367,362.011,305.957,362.533L305.957,362.533z
		 M522.026,244.395h0.087H522.026z"/>
	<path d="M301.545,606.048c-6.803,0-13.497-0.718-19.929-2.13c-3.499-0.761-6.368-1.674-9.193-2.674
		c-0.717-0.195-1.065-0.304-1.369-0.412c-3.26-1.218-6.302-2.652-9.084-4.26L78.587,490.713
		c-11.301-6.499-17.495-15.344-17.386-24.906l0.652-243.259v-0.021c0-1.804,1.478-3.26,3.282-3.26s3.26,1.457,3.26,3.282
		c0,6.998,5.129,13.931,14.105,19.039l183.405,105.926c2.413,1.391,5.129,2.651,8.02,3.738l1.152,0.348
		c2.543,0.913,5.172,1.739,7.911,2.369c6.498,1.456,12.953,2.065,19.69,2.108h0.022c0.869,0,1.695,0.348,2.304,0.956
		c0.608,0.609,0.956,1.456,0.956,2.326v243.432c0,1.804-1.434,3.26-3.238,3.281c-0.391-0.021-0.782-0.021-1.173-0.021H301.545z
		 M68.351,238.519l-0.609,227.302c-0.065,7.128,4.934,13.931,14.105,19.19l183.405,105.859c2.456,1.412,5.194,2.694,8.128,3.803
		l1.261,0.37c2.564,0.912,5.216,1.738,7.954,2.368c5.672,1.218,11.236,1.892,16.821,2.021V362.567
		c-6.02-0.174-11.931-0.891-17.583-2.173c-3.325-0.739-6.194-1.651-8.976-2.651c-0.652-0.174-0.956-0.261-1.26-0.391
		c-3.217-1.217-6.238-2.63-8.954-4.194L79.239,247.231c-4.412-2.521-8.085-5.477-10.888-8.715L68.351,238.519z"/>
	<path d="M203.202,318.369c-0.565,0-1.13-0.152-1.63-0.435l-61.289-35.425c-1.021-0.586-1.63-1.651-1.63-2.825
		c0-1.173,0.609-2.238,1.63-2.825L397.69,127.163c1.021-0.586,2.261-0.586,3.282,0l61.372,35.425c1.021,0.587,1.63,1.652,1.63,2.826
		c0,1.173-0.608,2.238-1.63,2.825L204.854,317.934C204.333,318.216,203.768,318.369,203.202,318.369L203.202,318.369z
		 M148.435,279.662l54.767,31.644L454.194,165.41l-54.832-31.643L148.435,279.662z"/>
	<path d="M202.574,561.755c-0.565,0-1.13-0.151-1.63-0.435l-61.289-35.338c-1.021-0.587-1.652-1.673-1.63-2.847l0.652-243.476
		c0-1.173,0.63-2.238,1.63-2.825c1.021-0.587,2.26-0.587,3.282,0l61.289,35.425c1.021,0.587,1.63,1.673,1.63,2.847l-0.652,243.387
		c0,1.174-0.63,2.238-1.63,2.825c-0.522,0.282-1.087,0.435-1.652,0.435V561.755z M144.545,521.245l54.768,31.578l0.63-235.848
		l-54.767-31.643L144.545,521.245z"/>
	<path d="M396.884,521.419c-2.76,0-5.434-0.239-8.041-0.717c-21.95-4.021-35.099-24.059-35.186-53.594
		c-0.131-46.726,32.838-103.84,73.501-127.313c20.364-11.758,39.663-13.562,54.397-5.086c14.626,8.433,22.732,25.884,22.798,49.16
		c0.087,28.535-12.192,62.09-32.816,89.758c-12.019,16.104-26.058,29.079-40.619,37.468
		C419.074,517.92,407.469,521.419,396.884,521.419L396.884,521.419z M461.082,335.994c-9.323,0-19.776,3.173-30.643,9.454
		c-38.859,22.428-70.353,77-70.219,121.638c0.065,26.123,11.235,43.77,29.839,47.182c11.041,2.021,24.059-1.021,37.599-8.845
		c13.8-7.976,27.166-20.32,38.641-35.729c19.82-26.557,31.6-58.635,31.535-85.824c-0.065-20.842-6.998-36.294-19.517-43.509
		c-5.129-2.912-10.932-4.368-17.234-4.368L461.082,335.994z M428.787,342.623h0.087H428.787z"/>
	<path d="M409.102,472.409c-2.217,0-4.455-0.608-6.281-1.695c-5.911-3.456-7.976-11.128-4.563-17.082l13.562-23.516l-9.063-5.216
		c-6.063-3.521-8.085-11.04-4.63-17.104c1.565-2.782,4.195-4.825,7.39-5.76c3.238-0.912,6.65-0.5,9.649,1.174l9.215,5.237
		l13.713-23.732c1.587-2.782,4.216-4.825,7.411-5.759c3.238-0.913,6.628-0.5,9.628,1.173c5.976,3.412,8.019,11.084,4.585,17.125
		l-13.562,23.516l9.063,5.216c5.824,3.368,7.954,10.736,4.933,16.626c-0.064,0.174-0.151,0.369-0.261,0.521
		c-3.368,5.737-11.323,7.889-17.038,4.585l-9.193-5.28l-13.691,23.71C417.621,470.083,413.578,472.408,409.102,472.409
		L409.102,472.409z M408.928,408.082c-0.521,0-1.065,0.065-1.587,0.218c-1.521,0.456-2.804,1.434-3.521,2.716
		c-1.651,2.913-0.674,6.521,2.217,8.216l11.888,6.846c0.761,0.435,1.304,1.152,1.521,1.978c0.218,0.848,0.108,1.739-0.326,2.478
		l-15.191,26.341c-1.651,2.891-0.674,6.498,2.238,8.193c2.587,1.565,6.477,0.565,8.128-2.194l15.3-26.515
		c0.892-1.564,2.891-2.086,4.456-1.195l12.04,6.911c2.543,1.478,6.303,0.5,7.976-1.956c0.044-0.108,0.087-0.195,0.131-0.282
		c1.564-2.782,0.521-6.521-2.282-8.149l-11.866-6.847c-0.761-0.435-1.304-1.151-1.521-1.978c-0.217-0.848-0.108-1.738,0.326-2.478
		l15.191-26.34c1.652-2.89,0.695-6.563-2.13-8.172c-1.434-0.804-3.086-1.021-4.607-0.586c-1.543,0.435-2.781,1.391-3.521,2.716
		l-15.343,26.557c-0.892,1.565-2.891,2.108-4.456,1.218l-12.04-6.847C410.992,408.365,409.949,408.082,408.928,408.082
		L408.928,408.082z M457.065,441.485h0.087H457.065z"/>
</g>
</svg>
