<?xml version="1.0" encoding="utf-8"?>
<!-- Generator: Adobe Illustrator 16.0.0, SVG Export Plug-In . SVG Version: 6.00 Build 0)  -->
<!DOCTYPE svg PUBLIC "-//W3C//DTD SVG 1.1//EN" "http://www.w3.org/Graphics/SVG/1.1/DTD/svg11.dtd">
<svg version="1.1" id="Layer_1" xmlns="http://www.w3.org/2000/svg" xmlns:xlink="http://www.w3.org/1999/xlink" x="0px" y="0px"
	 width="30px" height="30px" viewBox="30.802 39.5 550.396 555.388" enable-background="new 30.802 39.5 550.396 555.388"
	 xml:space="preserve">
<path d="M510.145,340.792V186.268c0-3.17-1.695-6.083-4.425-7.662L274.898,45.293c-2.735-1.579-6.12-1.579-8.843,0L35.227,178.611
	c-2.735,1.579-4.425,4.492-4.425,7.663v266.471c0,3.157,1.683,6.083,4.425,7.662l230.828,133.312
	c1.365,0.79,2.907,1.169,4.425,1.169c1.53,0,3.048-0.386,4.425-1.169l72.602-41.86c24.657,26.383,59.731,42.901,98.611,42.901
	c74.48,0,135.081-60.589,135.081-135.068C581.198,408.362,552.416,363.631,510.145,340.792z M406.087,141.494L188.588,267.076
	c-2.724,1.591-4.425,4.504-4.425,7.662v48.122l-58.593-33.825v-53.226l221.973-128.116L406.087,141.494z M270.474,575.836
	L48.495,447.641V191.372L270.474,63.188l59.37,34.284L112.302,223.037c-2.735,1.579-4.424,4.504-4.424,7.662v63.434
	c0,3.17,1.683,6.083,4.424,7.662l76.286,44.045c1.377,0.79,2.895,1.181,4.425,1.181c1.53,0,3.06-0.392,4.425-1.181
	c2.748-1.579,4.425-4.504,4.425-7.662v-58.33l221.923-128.141l68.686,39.658v141.427c-14.462-5.293-30.074-8.188-46.341-8.188
	c-74.48,0-135.068,60.588-135.068,135.069c0,29.167,9.32,56.193,25.104,78.28L270.474,575.836z M446.117,577.066
	c-64.725,0-117.382-52.656-117.382-117.382c0-64.725,52.657-117.381,117.382-117.381c64.726,0,117.382,52.656,117.382,117.381
	C563.499,524.41,510.843,577.066,446.117,577.066z M454.961,369.513v90.172c0,4.89-3.954,8.844-8.844,8.844H388.84
	c-4.89,0-8.843-3.954-8.843-8.844c0-4.878,3.953-8.843,8.843-8.843h48.435v-81.329c0-4.89,3.953-8.843,8.843-8.843
	S454.961,364.623,454.961,369.513z"/>
</svg>
