<svg xmlns="http://www.w3.org/2000/svg" width="69.303" height="65.562" viewBox="0 0 69.303 65.562">
  <g id="noun-dna-6706775" transform="translate(19.443 -51.887) rotate(50)">
    <g id="Group_51" data-name="Group 51" transform="translate(58.791 11.753)">
      <path id="Path_22" data-name="Path 22" d="M67.629,41.1l-7.694-5.5A2.722,2.722,0,0,1,58.8,33.386V14.476a2.721,2.721,0,1,1,5.441,0V31.988l8.066,5.77L67.632,41.1Zm14.025,3.344,7.694,5.5a2.722,2.722,0,0,1,1.137,2.212v18.91a2.721,2.721,0,0,1-5.441,0V53.558l-8.066-5.77,4.674-3.344Z" transform="translate(-58.796 -11.755)" fill="none" stroke="#707070" stroke-width="1"/>
      <path id="Path_23" data-name="Path 23" d="M61.511,73.793a2.722,2.722,0,0,0,2.72-2.721V53.56L89.343,35.6a2.722,2.722,0,0,0,1.137-2.212V14.474a2.72,2.72,0,1,0-5.441,0V31.986L59.928,49.95a2.722,2.722,0,0,0-1.137,2.212v18.91A2.722,2.722,0,0,0,61.511,73.793Z" transform="translate(-58.791 -11.753)" fill="none" stroke="#707070" stroke-width="1"/>
      <path id="Path_24" data-name="Path 24" d="M84.078,27.27H99.446v2.721H84.078Z" transform="translate(-75.919 -22.264)" fill="none" stroke="#707070" stroke-width="1" fill-rule="evenodd"/>
      <path id="Path_25" data-name="Path 25" d="M84.078,57.938H99.446v2.721H84.078Z" transform="translate(-75.919 -43.038)" fill="none" stroke="#707070" stroke-width="1" fill-rule="evenodd"/>
      <path id="Path_26" data-name="Path 26" d="M99.457,152.149H84.089v-2.72H99.457Z" transform="translate(-75.927 -105.01)" fill="none" stroke="#707070" stroke-width="1" fill-rule="evenodd"/>
      <path id="Path_27" data-name="Path 27" d="M99.457,182.817H84.089V180.1H99.457Z" transform="translate(-75.927 -125.784)" fill="none" stroke="#707070" stroke-width="1" fill-rule="evenodd"/>
    </g>
  </g>
</svg>
