<svg xmlns="http://www.w3.org/2000/svg" width="61.126" height="39.006" viewBox="0 0 61.126 39.006">
  <g id="noun-medicine-3717963" transform="translate(0.5 0.615)">
    <path id="Path_15" data-name="Path 15" d="M30.191,43.149a58.482,58.482,0,0,0,6.082-.312L21.164,27.716C14.337,28.869,8.9,31.357,8.9,35.059,8.9,40.312,19.878,43.149,30.191,43.149Z" transform="translate(-8.905 -12.024)" fill="none" stroke="#262626" stroke-width="1"/>
    <path id="Path_16" data-name="Path 16" d="M34.724,42.635a37.592,37.592,0,0,0,3.7-.805c-.709-.469-1.394-.937-2.043-1.394C31.526,36.95,26.2,32.01,23.618,27.226c-1.346.048-2.7.144-4.015.288L34.711,42.635h.012Z" transform="translate(-4.362 -12.232)" fill="none" stroke="#262626" stroke-width="1"/>
    <path id="Path_17" data-name="Path 17" d="M36.331,41.188c5.986,4.279,13.065,7.572,17.753,7.572a4.951,4.951,0,0,0,4.279-1.767l1.022-1.418a9.7,9.7,0,0,1-1.358.084c-5.829,0-13.714-4.147-19.147-8.029-5.4-3.858-12.885-10.745-14.171-16.791l-.986,1.382C20.657,26.488,27.941,35.179,36.331,41.188Z" transform="translate(-2.917 -14.944)" fill="none" stroke="#262626" stroke-width="1"/>
    <path id="Path_18" data-name="Path 18" d="M39.1,37.428a57.032,57.032,0,0,0,5.12,3.259l-3.5-21.067C34.507,16.6,28.637,15.46,26.48,18.462,23.427,22.741,30.7,31.431,39.1,37.428Z" transform="translate(-1.744 -16.701)" fill="none" stroke="#262626" stroke-width="1"/>
    <path id="Path_19" data-name="Path 19" d="M51.6,43.726a4.98,4.98,0,0,0,4.279-1.767c1.406-1.983.733-5.012-1.959-8.786A46.81,46.81,0,0,0,43.26,22.992a56.741,56.741,0,0,0-5.12-3.26l3.5,21.072C45.311,42.594,48.865,43.726,51.6,43.726Z" transform="translate(3.508 -15.414)" fill="none" stroke="#262626" stroke-width="1"/>
    <path id="Path_20" data-name="Path 20" d="M30.191,46.215c7.716,0,15.806-1.587,19.387-4.579-1.322-.625-2.62-1.31-3.882-2.043a49.215,49.215,0,0,1-15.505,2.26c-6.635,0-16.719-1.25-21.287-5.421v1.695C8.9,43.378,19.878,46.215,30.191,46.215Z" transform="translate(-8.905 -8.324)" fill="none" stroke="#262626" stroke-width="1"/>
  </g>
</svg>
