<svg xmlns="http://www.w3.org/2000/svg" width="42.263" height="61.279" viewBox="0 0 42.263 61.279">
  <g id="noun-glucometer-3428094" transform="translate(-15.327 -21.5)">
    <g id="Group_54" data-name="Group 54" transform="translate(15.829 22)">
      <g id="Group_53" data-name="Group 53">
        <rect id="Rectangle_37" data-name="Rectangle 37" width="3.751" height="9.77" transform="translate(18.754 50.509)" fill="none" stroke="#707070" stroke-width="1"/>
        <g id="Group_52" data-name="Group 52">
          <rect id="Rectangle_38" data-name="Rectangle 38" width="18.968" height="8.562" transform="translate(11.145 16.575)" fill="none" stroke="#707070" stroke-width="1"/>
          <path id="Path_28" data-name="Path 28" d="M126.372,22H106.565A10.72,10.72,0,0,0,95.857,33.318l1.191,21.151a19.444,19.444,0,0,0,19.42,18.343h0a19.444,19.444,0,0,0,19.42-18.343l1.191-21.151A10.72,10.72,0,0,0,126.372,22ZM113.395,59.988h-6.148V56.237h6.148Zm12.295,0h-6.148V56.237h6.148ZM129.7,49.012a1.875,1.875,0,0,1-1.875,1.875H105.109a1.875,1.875,0,0,1-1.875-1.875V36.7a1.875,1.875,0,0,1,1.875-1.875h22.719A1.875,1.875,0,0,1,129.7,36.7V49.012Z" transform="translate(-95.84 -22)" fill="none" stroke="#707070" stroke-width="1"/>
        </g>
      </g>
    </g>
  </g>
</svg>
