<svg xmlns="http://www.w3.org/2000/svg" width="65.471" height="51.045" viewBox="0 0 65.471 51.045">
  <g id="noun-herbal-3843499" transform="translate(-6.342 -10.179)">
    <g id="Herbal" transform="translate(6.842 10.679)">
      <path id="Path_29" data-name="Path 29" d="M57.184,22.2a.939.939,0,0,1,0-1.328l1.5-1.5A.939.939,0,1,1,60.015,20.7l-1.5,1.5a.939.939,0,0,1-1.328,0Zm6.174.028A.939.939,0,1,0,64.686,20.9l-1.5-1.5a.939.939,0,1,0-1.328,1.328Zm-.806-4.4a.939.939,0,0,0,.665-.274l1.5-1.5a.94.94,0,1,0-1.328-1.33l-1.5,1.5a.939.939,0,0,0,.663,1.6Zm-3.83-.3A.939.939,0,1,0,60.05,16.2l-1.5-1.5a.939.939,0,1,0-1.328,1.328ZM12.487,46.54v-1.8a.939.939,0,1,0-1.878,0v1.8a.939.939,0,1,0,1.878,0ZM11.547,41.2a.939.939,0,0,0,.939-.939v-1.8a.939.939,0,0,0-1.878,0v1.8a.939.939,0,0,0,.939.939Zm2.226,2.232h.582a.939.939,0,0,0,0-1.878h-.582a.939.939,0,0,0,0,1.878ZM9.3,41.551H8.72a.939.939,0,1,0,0,1.878H9.3a.939.939,0,0,0,0-1.878ZM7.781,58.846a.939.939,0,1,0,.939.939A.939.939,0,0,0,7.781,58.846ZM71.193,58.5a.894.894,0,0,1-.789.507,57.208,57.208,0,0,0-8.246,1.165,14.776,14.776,0,0,1-2.855.3,9.2,9.2,0,0,1-6.612-2.517,4.824,4.824,0,0,1-4.358,2.761H12.01a.939.939,0,1,1,0-1.878H24.18a4.79,4.79,0,0,1-1.014-2.949V32.938a.579.579,0,0,1,.019-.188,8.641,8.641,0,0,1,3.081-6.462l.808-.7a6.574,6.574,0,0,0,1.8-2.367.971.971,0,0,1,1.259-.47.939.939,0,0,1,.451,1.259,8.851,8.851,0,0,1-2.292,3.024l-.827.7A6.762,6.762,0,0,0,25.119,32H51.207a6.762,6.762,0,0,0-2.348-4.264l-.808-.7a8.718,8.718,0,0,1-3.1-6.668v-.056H29.7A2.818,2.818,0,0,1,26.9,17.5v-4.02a2.806,2.806,0,0,1,2.8-2.8H46.623a2.806,2.806,0,0,1,2.8,2.8V17.5a2.8,2.8,0,0,1-2.592,2.8v.075a6.826,6.826,0,0,0,2.423,5.222l.827.7a8.7,8.7,0,0,1,3.062,6.462.579.579,0,0,1,.019.188V50.765A113.271,113.271,0,0,1,60.824,41.6.939.939,0,1,1,62.2,42.875c-1.428,1.578-4.565,5.109-6.556,7.7.526-.188,1.108-.376,1.766-.545A8.479,8.479,0,0,1,60.9,49.9a10.183,10.183,0,0,0,3.16-6.588,26.486,26.486,0,0,1,.855-5.678,28.381,28.381,0,0,0-8.175,4.057.94.94,0,0,1-1.15-1.488,32.658,32.658,0,0,1,10.94-4.995.939.939,0,0,1,.624,1.76h0c.056,0-.872,1.127-1.221,6.467a11.934,11.934,0,0,1-2.985,7.046h0a20.075,20.075,0,0,1,8.209,7.082A.939.939,0,0,1,71.193,58.5ZM31.558,14.267a.939.939,0,1,0-1.878,0v2.463a.939.939,0,1,0,1.878,0Zm3.776,0a.939.939,0,1,0-1.878,0v2.463a.939.939,0,1,0,1.878,0Zm3.776,0a.939.939,0,1,0-1.878,0v2.463a.939.939,0,1,0,1.878,0Zm3.776,0a.939.939,0,1,0-1.878,0v2.463a.939.939,0,1,0,1.878,0Zm2.836,3.4a.939.939,0,0,0,.939-.939V14.267a.939.939,0,1,0-1.878,0v2.463a.939.939,0,0,0,.939.939ZM35.653,45.561v1.446a.939.939,0,0,0,.939.939h3.156a.939.939,0,0,0,.939-.939V45.561h1.446a.939.939,0,0,0,.939-.939V41.466a.939.939,0,0,0-.939-.939H40.687V39.062a.939.939,0,0,0-.939-.939H36.593a.939.939,0,0,0-.939.939v1.465H34.188a.939.939,0,0,0-.939.939v3.156a.939.939,0,0,0,.939.939ZM51.282,55.893V54.559H25.04v1.334a2.955,2.955,0,0,0,2.949,2.949H48.333a2.942,2.942,0,0,0,2.949-2.949Zm17.3,1.39a15.234,15.234,0,0,0-7.532-5.427c-.056-.019-.113-.019-.15-.038a7.24,7.24,0,0,0-3.043.038,11.9,11.9,0,0,0-3.607,1.5l-.015.011a18.67,18.67,0,0,1,10.38,1.443.939.939,0,0,1-.438,1.769.922.922,0,0,1-.44-.109,16.93,16.93,0,0,0-10.577-.966v.105A7.012,7.012,0,0,0,59.34,58.6a11.915,11.915,0,0,0,2.442-.263c2.949-.6,5.316-.9,6.8-1.054Z" transform="translate(-6.842 -10.679)" fill="none" stroke="#707070" stroke-width="1"/>
    </g>
  </g>
</svg>
