<svg xmlns="http://www.w3.org/2000/svg" width="69.721" height="41.744" viewBox="0 0 69.721 41.744">
  <g id="noun-medicine-3198349" transform="translate(-3.498 -13.27)">
    <path id="Path_21" data-name="Path 21" d="M4.021,28.544A13.92,13.92,0,0,0,8.66,38.222L20.141,48.5a1.39,1.39,0,0,0,.959.372.129.129,0,0,0,.072-.014,1.384,1.384,0,0,0,.988-.472L38.351,30.334,54.543,48.386a1.411,1.411,0,0,0,.988.472.182.182,0,0,0,.086.014,1.443,1.443,0,0,0,.959-.372L68.043,38.222A14.016,14.016,0,0,0,49.332,17.349L38.351,27.2l-10.98-9.849a14.015,14.015,0,0,0-23.35,11.2ZM55.373,38.05,62.3,31.823a1.434,1.434,0,1,1,1.918,2.133l-6.943,6.228a1.43,1.43,0,1,1-1.9-2.133ZM11.852,22.245a8.173,8.173,0,0,1,6.17-2.749,8.257,8.257,0,0,1,5.526,2.119,1.43,1.43,0,1,1-1.9,2.133,5.434,5.434,0,0,0-7.659.4,1.408,1.408,0,0,1-2.019.115A1.416,1.416,0,0,1,11.852,22.245Z" transform="translate(0 0)" fill="none" stroke="#707070" stroke-width="1"/>
    <circle id="Ellipse_1" data-name="Ellipse 1" cx="4.295" cy="4.295" r="4.295" transform="translate(33.598 37.076)" fill="none" stroke="#707070" stroke-width="1"/>
    <circle id="Ellipse_2" data-name="Ellipse 2" cx="4.295" cy="4.295" r="4.295" transform="translate(40.771 45.924)" fill="none" stroke="#707070" stroke-width="1"/>
    <circle id="Ellipse_3" data-name="Ellipse 3" cx="4.295" cy="4.295" r="4.295" transform="translate(26.426 45.924)" fill="none" stroke="#707070" stroke-width="1"/>
  </g>
</svg>
