<?xml version="1.0" encoding="utf-8"?>
<!-- Generator: Adobe Illustrator 16.0.0, SVG Export Plug-In . SVG Version: 6.00 Build 0)  -->
<!DOCTYPE svg PUBLIC "-//W3C//DTD SVG 1.1//EN" "http://www.w3.org/Graphics/SVG/1.1/DTD/svg11.dtd">
<svg version="1.1" id="Layer_1" xmlns="http://www.w3.org/2000/svg" xmlns:xlink="http://www.w3.org/1999/xlink" x="0px" y="0px"
	 width="50px" height="50px" fill="#ffffff" viewBox="73.5 115.5 456 456" enable-background="new 73.5 115.5 456 456" xml:space="preserve">
<path d="M245.364,155.109c-73.741,0-133.527,59.787-133.527,133.527c0,73.741,59.787,133.528,133.527,133.528
	c36.881,0,70.241-14.931,94.41-39.12c24.188-24.167,39.118-57.528,39.118-94.409c0-73.74-59.786-133.527-133.527-133.527
	L245.364,155.109z M78.455,288.636c0-92.189,74.72-166.909,166.909-166.909c92.189,0,166.909,74.719,166.909,166.909
	c0,40.076-14.148,76.867-37.663,105.62l144.049,144.071c6.52,6.52,6.52,17.082,0,23.602c-6.521,6.521-17.082,6.521-23.603,0
	l-144.07-144.048c-28.753,23.516-65.545,37.663-105.62,37.663c-92.189,0-166.909-74.72-166.909-166.909L78.455,288.636z"/>
</svg>
