<svg width="186" height="30" viewBox="0 0 186 40" fill="#5E676F" xmlns="http://www.w3.org/2000/svg">
<path d="M16.6057 1.38358H33.4575C34.0493 1.38358 34.6169 1.61901 35.0353 2.03807C35.4538 2.45713 35.6889 3.0255 35.6889 3.61815C35.6889 4.21079 35.4538 4.77916 35.0353 5.19822C34.6169 5.61729 34.0493 5.85271 33.4575 5.85271H16.6057C16.0139 5.85271 15.4464 5.61729 15.0279 5.19822C14.6094 4.77916 14.3743 4.21079 14.3743 3.61815C14.3743 3.0255 14.6094 2.45713 15.0279 2.03807C15.4464 1.61901 16.0139 1.38358 16.6057 1.38358Z" fill="#5E676F"/>
<path d="M2.03054 1.3842C1.4919 1.38453 0.975423 1.59904 0.594658 1.98059C0.213892 2.36213 2.7818e-07 2.87948 3.78438e-07 3.4189V3.8174C-0.000162464 4.0846 0.05223 4.34921 0.154186 4.59614C0.256143 4.84306 0.405666 5.06745 0.59422 5.25651C0.782773 5.44556 1.00666 5.59557 1.25311 5.69798C1.49955 5.80038 1.76373 5.85317 2.03054 5.85334H7.88169C8.42055 5.85334 8.93734 5.63897 9.31838 5.25739C9.69941 4.87581 9.91347 4.35827 9.91347 3.81864V3.42014C9.91364 3.15289 9.86122 2.88822 9.75923 2.64126C9.65723 2.39429 9.50765 2.16987 9.31903 1.98081C9.13041 1.79175 8.90645 1.64175 8.65993 1.53938C8.41342 1.43701 8.14918 1.38428 7.88231 1.3842H2.03054Z" fill="#5E676F"/>
<path d="M2.23137 9.8228H35.9374C36.5292 9.8228 37.0968 10.0582 37.5152 10.4773C37.9337 10.8963 38.1688 11.4647 38.1688 12.0574C38.1688 12.65 37.9337 13.2184 37.5152 13.6374C37.0968 14.0565 36.5292 14.2919 35.9374 14.2919H2.23137C1.63957 14.2919 1.07202 14.0565 0.653553 13.6374C0.23509 13.2184 3.78921e-07 12.65 3.78921e-07 12.0574C3.78921e-07 11.4647 0.23509 10.8963 0.653553 10.4773C1.07202 10.0582 1.63957 9.8228 2.23137 9.8228Z" fill="#5E676F"/>
<path d="M2.03055 18.2601C1.49243 18.2605 0.976429 18.4746 0.595752 18.8554C0.215076 19.2363 0.000821058 19.7529 3.65472e-07 20.2917V20.6909C2.65214e-07 21.2303 0.213892 21.7476 0.594658 22.1292C0.975423 22.5107 1.4919 22.7252 2.03055 22.7256H6.39473C6.93354 22.7254 7.45024 22.511 7.83124 22.1294C8.21223 21.7479 8.42635 21.2304 8.42651 20.6909V20.2917C8.42618 19.7523 8.212 19.235 7.83102 18.8536C7.45004 18.4722 6.93343 18.2578 6.39473 18.2577L2.03055 18.2601Z" fill="#5E676F"/>
<path d="M13.9275 18.2614C13.3888 18.2616 12.8723 18.4759 12.4914 18.8573C12.1105 19.2388 11.8965 19.756 11.8963 20.2955V20.6952C11.8963 20.9623 11.9488 21.2268 12.0509 21.4735C12.153 21.7203 12.3026 21.9445 12.4912 22.1333C12.6799 22.3221 12.9038 22.4719 13.1502 22.5741C13.3966 22.6762 13.6607 22.7287 13.9275 22.7287H19.7786C20.0453 22.7287 20.3094 22.6762 20.5558 22.5741C20.8023 22.4719 21.0262 22.3221 21.2148 22.1333C21.4034 21.9445 21.5531 21.7203 21.6551 21.4735C21.7572 21.2268 21.8098 20.9623 21.8098 20.6952V20.2955C21.8096 19.756 21.5955 19.2388 21.2147 18.8573C20.8338 18.4759 20.3172 18.2616 19.7786 18.2614H13.9275Z" fill="#5E676F"/>
<path d="M26.3184 18.2614C25.7797 18.2616 25.2632 18.4759 24.8823 18.8573C24.5014 19.2388 24.2874 19.756 24.2872 20.2955V20.6952C24.2872 20.9623 24.3397 21.2268 24.4418 21.4735C24.5439 21.7203 24.6935 21.9445 24.8821 22.1333C25.0708 22.3221 25.2947 22.4719 25.5411 22.5741C25.7875 22.6762 26.0517 22.7287 26.3184 22.7287H35.6399C35.9066 22.7287 36.1707 22.6762 36.4171 22.574C36.6634 22.4719 36.8873 22.3221 37.0759 22.1333C37.2645 21.9444 37.414 21.7202 37.516 21.4735C37.6181 21.2267 37.6705 20.9623 37.6704 20.6952V20.2955C37.6705 20.0284 37.6181 19.7639 37.5161 19.5171C37.4141 19.2703 37.2645 19.0461 37.0759 18.8572C36.8874 18.6683 36.6635 18.5185 36.4171 18.4162C36.1707 18.314 35.9066 18.2614 35.6399 18.2614H26.3184Z" fill="#5E676F"/>
<path d="M10.4577 25.7093C10.191 25.7093 9.92688 25.762 9.68048 25.8642C9.43408 25.9664 9.21021 26.1162 9.02165 26.3051C8.83308 26.494 8.68353 26.7183 8.58152 26.965C8.47951 27.2118 8.42705 27.4763 8.42713 27.7434V28.1431C8.42705 28.4102 8.47951 28.6747 8.58152 28.9215C8.68353 29.1683 8.83308 29.3925 9.02165 29.5814C9.21021 29.7703 9.43408 29.9202 9.68048 30.0224C9.92688 30.1246 10.191 30.1772 10.4577 30.1772H35.6405C36.1791 30.1771 36.6956 29.9627 37.0764 29.5812C37.4572 29.1998 37.6711 28.6825 37.6711 28.1431V27.7434C37.6711 27.204 37.4572 26.6868 37.0764 26.3053C36.6956 25.9239 36.1791 25.7095 35.6405 25.7093H10.4577Z" fill="#5E676F"/>
<path d="M23.3451 34.1454C22.8065 34.1454 22.2899 34.3597 21.909 34.741C21.5281 35.1223 21.3141 35.6395 21.3139 36.1789V36.578C21.3139 37.1175 21.5279 37.635 21.9088 38.0165C22.2897 38.3981 22.8063 38.6125 23.3451 38.6127H35.6399C35.9067 38.6127 36.1708 38.5601 36.4172 38.4578C36.6637 38.3555 36.8876 38.2056 37.0762 38.0167C37.2647 37.8277 37.4143 37.6034 37.5162 37.3566C37.6182 37.1097 37.6706 36.8452 37.6704 36.578V36.1789C37.6705 35.9118 37.6181 35.6474 37.516 35.4006C37.414 35.1539 37.2645 34.9297 37.0759 34.7408C36.8873 34.552 36.6634 34.4022 36.417 34.3001C36.1707 34.1979 35.9066 34.1454 35.6399 34.1454H23.3451Z" fill="#5E676F"/>
<path d="M13.4316 34.1454C13.1648 34.1452 12.9005 34.1976 12.654 34.2997C12.4074 34.4018 12.1833 34.5515 11.9946 34.7404C11.8058 34.9292 11.6561 35.1535 11.5539 35.4003C11.4518 35.6471 11.3992 35.9117 11.3992 36.1789V36.578C11.3991 36.8452 11.4516 37.1098 11.5536 37.3566C11.6557 37.6035 11.8053 37.8278 11.9939 38.0167C12.1825 38.2057 12.4064 38.3556 12.6529 38.4578C12.8994 38.5601 13.1636 38.6127 13.4304 38.6127H17.2999C17.8387 38.6125 18.3553 38.3981 18.7362 38.0165C19.1171 37.635 19.3311 37.1175 19.3311 36.578V36.1789C19.3311 35.9118 19.2785 35.6473 19.1765 35.4006C19.0744 35.1538 18.9248 34.9296 18.7361 34.7408C18.5475 34.552 18.3236 34.4022 18.0772 34.3001C17.8307 34.1979 17.5666 34.1454 17.2999 34.1454H13.4316Z" fill="#5E676F"/>
<path d="M105.953 39.401H112.692V11.3746H105.953V39.401ZM135.679 11.3746L128.288 31.6719L120.897 11.3746H113.615L124.592 39.401H131.82L142.798 11.3746H135.679ZM184.154 11.0481C180.639 11.0481 178.211 12.5355 176.872 15.5104V11.3746H170.186V39.401H176.923V25.6876C176.923 20.3184 179.35 17.6336 184.204 17.6332H185.998V11.0499L184.154 11.0481ZM74.9225 18.177C76.2049 17.1678 77.8032 16.6472 79.433 16.7077C81.0345 16.6199 82.6061 17.1676 83.8071 18.2322C84.3567 18.7876 84.7834 19.4526 85.0595 20.184C85.3357 20.9153 85.4551 21.6967 85.41 22.4773H72.6936C72.8664 20.8125 73.6639 19.2755 74.925 18.177M69.8703 14.7755C67.2972 17.3709 66.0111 20.971 66.0119 25.5759C66.0119 30.1121 67.2799 33.6501 69.8158 36.1901C71.0573 37.4418 72.5416 38.4256 74.1773 39.0808C75.813 39.7361 77.5653 40.0489 79.3264 40C82.1469 40.0444 84.9141 39.228 87.2601 37.6593C89.5649 36.0801 91.1928 33.6911 91.8208 30.9662H85.5197C84.6135 33.1072 82.6387 34.1775 79.5954 34.1771C77.74 34.2777 75.918 33.6535 74.5128 32.436C73.2632 31.2749 72.6021 29.606 72.5294 27.4293H92.039V24.6535C92.039 20.2998 90.8524 16.9165 88.4793 14.5036C87.3105 13.3119 85.9081 12.3753 84.3603 11.7525C82.8126 11.1297 81.1529 10.8343 79.4857 10.8848C77.7019 10.838 75.9276 11.1591 74.273 11.8282C72.6184 12.4973 71.119 13.5001 69.8678 14.7742M150.351 18.1757C151.633 17.1669 153.232 16.6463 154.861 16.7065C156.463 16.6189 158.035 17.1666 159.236 18.231C159.786 18.7864 160.212 19.4514 160.488 20.1828C160.765 20.9141 160.884 21.6954 160.839 22.476H148.123C148.295 20.8118 149.091 19.2748 150.351 18.1757ZM145.297 14.7742C142.724 17.3696 141.438 20.9698 141.438 25.5746C141.438 30.1108 142.707 33.6489 145.243 36.1888C146.485 37.4406 147.969 38.4245 149.605 39.0797C151.24 39.735 152.992 40.0478 154.753 39.9988C157.574 40.0432 160.341 39.2268 162.687 37.6581C164.994 36.0801 166.624 33.6915 167.253 30.9662H160.948C160.042 33.1072 158.067 34.1775 155.024 34.1771C153.169 34.2777 151.347 33.6535 149.942 32.436C148.691 31.2749 148.03 29.606 147.958 27.4293H167.467V24.6535C167.467 20.2998 166.281 16.9165 163.909 14.5036C162.74 13.3121 161.337 12.3755 159.79 11.7528C158.242 11.13 156.582 10.8345 154.915 10.8848C153.131 10.8378 151.356 11.1589 149.701 11.8281C148.047 12.4974 146.547 13.5004 145.296 14.7748M39.7617 7.94638H45.903C49.6702 7.94638 52.5504 9.0529 54.5433 11.266C56.5649 13.5575 57.6345 16.5368 57.5327 19.5928C57.6209 23.0127 56.4288 26.342 54.1906 28.9265C51.9638 31.4838 48.8389 32.7625 44.8158 32.7625H39.7617V7.94638ZM45.9823 1.30475C45.8658 1.30475 45.7486 1.30475 45.6309 1.30475H32.697V39.401H44.7612C48.5897 39.5625 52.3805 38.5877 55.6578 36.5991C58.594 34.8317 60.9681 32.2648 62.5031 29.1977C63.9686 26.2117 64.7045 22.9196 64.6502 19.5928C64.7373 17.1948 64.3394 14.8039 63.4802 12.5638C62.6211 10.3238 61.3184 8.28083 59.6507 6.55785C56.3135 3.05578 51.7578 1.30475 45.9835 1.30475M94.7588 39.4016H101.496V0.707623H94.7575L94.7588 39.4016ZM105.736 7.67451H112.91V0.00125122H105.735L105.736 7.67451Z" fill="#5E676F"/>
</svg>
