<svg width="24" height="24" viewBox="0 0 24 24" fill="#5e676f" xmlns="http://www.w3.org/2000/svg">
<path d="M22.6066 1.3934C21.8255 0.61232 20.5593 0.612421 19.7782 1.39346L12 9.17166L4.2219 1.39346C3.4407 0.612351 2.1745 0.61234 1.3934 1.3934C0.612296 2.17448 0.612397 3.44077 1.3933 4.22183L9.1715 12L1.3934 19.7782C0.612296 20.5593 0.612296 21.8256 1.3934 22.6067C2.1745 23.3877 3.4407 23.3877 4.2218 22.6067L12 14.8285L19.7781 22.6067C20.5593 23.3878 21.8255 23.3877 22.6066 22.6067C23.3877 21.8256 23.3876 20.5592 22.6067 19.7782L14.8285 12L22.6066 4.22183C23.3877 3.4408 23.3877 2.17445 22.6066 1.3934Z" fill="black"/>
</svg>
