<?xml version="1.0" encoding="utf-8"?>
<!-- Generator: Adobe Illustrator 16.0.0, SVG Export Plug-In . SVG Version: 6.00 Build 0)  -->
<!DOCTYPE svg PUBLIC "-//W3C//DTD SVG 1.1//EN" "http://www.w3.org/Graphics/SVG/1.1/DTD/svg11.dtd">
<svg version="1.1" id="Layer_1" xmlns="http://www.w3.org/2000/svg" xmlns:xlink="http://www.w3.org/1999/xlink" x="0px" y="0px"
	 width="60px" height="60px" fill="#99a0ac" viewBox="32.5 118.5 537 451" enable-background="new 32.5 118.5 537 451" xml:space="preserve">
<path d="M191.941,256.712c0,0.826-0.065,1.608-0.108,2.391c-0.326,11.692-9.91,21.037-21.646,21.037
	c-24.928,0-47.464,10.063-63.765,26.427c-16.3,16.3-26.427,38.88-26.427,63.765c0,24.863,10.062,47.465,26.427,63.765
	c16.3,16.3,38.88,26.428,63.765,26.428c11.953,0,21.646,9.671,21.646,21.646c0,11.953-9.671,21.646-21.646,21.646
	c-36.837,0-70.219-14.975-94.365-39.119c-24.124-24.168-39.097-57.551-39.097-94.387c0-36.837,14.974-70.219,39.119-94.365
	c19.69-19.69,45.466-33.208,74.286-37.62c4.738-30.035,20.799-56.916,44.444-77.106C222,137.747,259.663,123.23,301,123.23
	c41.337,0,78.998,14.518,106.426,37.989c23.646,20.19,39.729,47.073,44.444,77.106c28.818,4.346,54.637,17.908,74.286,37.62
	c24.145,24.145,39.118,57.528,39.118,94.365c0,36.837-14.974,70.218-39.118,94.365c-24.146,24.146-57.528,39.119-94.365,39.119
	c-11.953,0-21.646-9.671-21.646-21.646c0-11.953,9.671-21.646,21.646-21.646c24.928,0,47.465-10.063,63.765-26.427
	c16.3-16.3,26.428-38.881,26.428-63.765c0-24.863-10.063-47.464-26.428-63.765c-16.3-16.3-38.88-26.427-63.765-26.427
	c-11.736,0-21.255-9.345-21.646-20.972c-0.109-0.782-0.174-1.608-0.174-2.456c0-24.319-11.736-46.465-30.666-62.702
	c-19.863-16.974-47.573-27.492-78.391-27.492c-30.796,0.021-58.44,10.54-78.303,27.557c-18.907,16.191-30.665,38.38-30.665,62.658
	L191.941,256.712z M225.563,393.455l53.42-53.419v203.679c0,11.953,9.671,21.646,21.646,21.646c11.953,0,21.646-9.671,21.646-21.646
	l-0.021-203.724l53.419,53.419c8.454,8.454,22.146,8.454,30.601,0s8.454-22.146,0-30.6l-89.976-89.975
	c-3.955-4.107-9.519-6.737-15.691-6.737s-11.736,2.564-15.691,6.737l-89.953,90.02c-8.454,8.454-8.454,22.146,0,30.6
	C203.416,401.866,217.108,401.866,225.563,393.455L225.563,393.455z"/>
</svg>
