<?xml version="1.0" encoding="utf-8"?>
<!-- Generator: Adobe Illustrator 16.0.0, SVG Export Plug-In . SVG Version: 6.00 Build 0)  -->
<!DOCTYPE svg PUBLIC "-//W3C//DTD SVG 1.1//EN" "http://www.w3.org/Graphics/SVG/1.1/DTD/svg11.dtd">
<svg version="1.1" id="Layer_1" xmlns="http://www.w3.org/2000/svg" xmlns:xlink="http://www.w3.org/1999/xlink" x="0px" y="0px"
	 width="16px" height="16px" fill="#99a09c" viewBox="0 97.5 612 441" enable-background="new 0 97.5 612 441" xml:space="preserve">
<title>Forward</title>
<path d="M412.121,110.808c-7.686-9.215-21.385-10.456-30.601-2.771c-9.215,7.685-10.455,21.385-2.771,30.6
	c0.838,1.005,1.766,1.933,2.771,2.771l156.121,156.305H21.604c-12.016,0.637-21.24,10.895-20.602,22.911
	c0.59,11.125,9.478,20.012,20.602,20.603h516.038L381.276,497.348c-8.176,8.562-8.176,22.038,0,30.6
	c8.423,8.45,22.102,8.472,30.552,0.048c0.016-0.016,0.032-0.032,0.048-0.048l193.392-193.392c8.45-8.134,8.707-21.578,0.573-30.027
	c-0.188-0.194-0.378-0.385-0.573-0.573L412.121,110.808z"/>
</svg>
