<?xml version="1.0" encoding="utf-8"?>
<!-- Generator: Adobe Illustrator 16.0.0, SVG Export Plug-In . SVG Version: 6.00 Build 0)  -->
<!DOCTYPE svg PUBLIC "-//W3C//DTD SVG 1.1//EN" "http://www.w3.org/Graphics/SVG/1.1/DTD/svg11.dtd">
<svg version="1.1" id="Layer_1" xmlns="http://www.w3.org/2000/svg" xmlns:xlink="http://www.w3.org/1999/xlink" x="0px" y="0px"
	 width="50px" height="50px" fill="#31c971" viewBox="79.5 91.5 453 457" enable-background="new 79.5 91.5 453 457" xml:space="preserve">
<g>
	<path d="M306,99.18c-121.788,0-220.32,98.532-220.32,220.32S184.212,539.82,306,539.82s220.32-98.532,220.32-220.32
		S427.788,99.18,306,99.18z M306,503.1c-100.98,0-183.6-82.619-183.6-183.6c0-100.98,82.62-183.6,183.6-183.6
		c100.98,0,183.6,82.62,183.6,183.6C489.6,420.48,406.98,503.1,306,503.1z"/>
	<path d="M399.636,240.552L280.908,359.28l-68.544-67.932c-7.344-7.344-18.972-7.344-25.704,0c-7.344,7.344-7.344,18.972,0,25.704
		l81.396,81.396c3.672,3.672,8.568,5.508,12.852,5.508c4.284,0,9.18-1.836,12.852-5.508l132.192-132.192
		c7.344-7.344,7.344-18.972,0-25.704C418.608,233.208,406.98,233.208,399.636,240.552z"/>
</g>
</svg>
