<svg width="380" height="82" viewBox="0 0 380 82" fill="none" xmlns="http://www.w3.org/2000/svg">
<path d="M33.9191 2.82362H68.3407C69.5495 2.82362 70.7088 3.3045 71.5636 4.16048C72.4183 5.01646 72.8985 6.17742 72.8985 7.38796C72.8985 8.5985 72.4183 9.75946 71.5636 10.6154C70.7088 11.4714 69.5495 11.9523 68.3407 11.9523H33.9191C32.7103 11.9523 31.551 11.4714 30.6963 10.6154C29.8415 9.75946 29.3613 8.5985 29.3613 7.38796C29.3613 6.17742 29.8415 5.01646 30.6963 4.16048C31.551 3.3045 32.7103 2.82362 33.9191 2.82362Z" fill="#353E40"/>
<path d="M4.14761 2.82488C3.04736 2.82555 1.99241 3.26372 1.21465 4.04307C0.436898 4.82241 5.68213e-07 5.87915 7.73e-07 6.98097V7.79495C-0.000331851 8.34073 0.106685 8.88124 0.314942 9.38561C0.523199 9.88997 0.828617 10.3483 1.21376 10.7345C1.5989 11.1207 2.05622 11.4271 2.55961 11.6362C3.063 11.8454 3.6026 11.9532 4.14761 11.9536H16.0992C17.1999 11.9536 18.2555 11.5157 19.0338 10.7363C19.8121 9.95687 20.2493 8.89975 20.2493 7.79748V6.98351C20.2497 6.43762 20.1426 5.89701 19.9343 5.39256C19.7259 4.88811 19.4204 4.4297 19.0351 4.04352C18.6499 3.65734 18.1924 3.35095 17.6889 3.14185C17.1853 2.93276 16.6456 2.82505 16.1005 2.82488H4.14761Z" fill="#353E40"/>
<path d="M4.55781 20.0616H73.4061C74.6149 20.0616 75.7742 20.5425 76.6289 21.3985C77.4837 22.2545 77.9639 23.4154 77.9639 24.626C77.9639 25.8365 77.4837 26.9975 76.6289 27.8535C75.7742 28.7094 74.6149 29.1903 73.4061 29.1903H4.55781C3.349 29.1903 2.18971 28.7094 1.33495 27.8535C0.480197 26.9975 0 25.8365 0 24.626C0 23.4154 0.480197 22.2545 1.33495 21.3985C2.18971 20.5425 3.349 20.0616 4.55781 20.0616Z" fill="#353E40"/>
<path d="M4.14761 37.2958C3.04846 37.2965 1.99446 37.7338 1.21689 38.5118C0.439314 39.2897 0.00167635 40.3449 0 41.4456V42.2608C-2.04787e-07 43.3626 0.436898 44.4194 1.21465 45.1987C1.99241 45.9781 3.04736 46.4162 4.14761 46.4169H13.0619C14.1625 46.4166 15.2179 45.9786 15.9961 45.1992C16.7744 44.4199 17.2117 43.363 17.2121 42.2608V41.4456C17.2114 40.3436 16.7739 39.287 15.9957 38.508C15.2175 37.7289 14.1623 37.2911 13.0619 37.2908L4.14761 37.2958Z" fill="#353E40"/>
<path d="M28.4482 37.2984C27.3479 37.2987 26.2929 37.7366 25.5149 38.5157C24.7369 39.2948 24.2997 40.3514 24.2993 41.4532V42.2697C24.2993 42.8153 24.4066 43.3555 24.6152 43.8595C24.8237 44.3635 25.1293 44.8215 25.5146 45.2072C25.8999 45.5929 26.3572 45.8988 26.8606 46.1075C27.3639 46.3161 27.9034 46.4234 28.4482 46.4233H40.3998C40.9446 46.4234 41.484 46.3161 41.9874 46.1075C42.4907 45.8988 42.9481 45.5929 43.3334 45.2072C43.7187 44.8215 44.0243 44.3635 44.2328 43.8595C44.4413 43.3555 44.5487 42.8153 44.5487 42.2697V41.4532C44.5483 40.3514 44.1111 39.2948 43.3331 38.5157C42.5551 37.7366 41.5 37.2987 40.3998 37.2984H28.4482Z" fill="#353E40"/>
<path d="M53.7578 37.2984C52.6575 37.2987 51.6024 37.7366 50.8244 38.5157C50.0465 39.2948 49.6092 40.3514 49.6089 41.4532V42.2697C49.6089 42.8153 49.7162 43.3555 49.9247 43.8595C50.1332 44.3635 50.4389 44.8215 50.8241 45.2072C51.2094 45.5929 51.6668 45.8988 52.1702 46.1075C52.6735 46.3161 53.213 46.4234 53.7578 46.4233H72.798C73.3427 46.4234 73.8821 46.3161 74.3854 46.1074C74.8887 45.8988 75.346 45.5928 75.7312 45.2071C76.1164 44.8214 76.4219 44.3634 76.6302 43.8594C76.8386 43.3554 76.9458 42.8152 76.9456 42.2697V41.4532C76.9458 40.9076 76.8386 40.3674 76.6303 39.8633C76.4219 39.3592 76.1164 38.9012 75.7313 38.5154C75.3461 38.1295 74.8888 37.8235 74.3855 37.6147C73.8822 37.4058 73.3428 37.2984 72.798 37.2984H53.7578Z" fill="#353E40"/>
<path d="M21.361 52.5116C20.8162 52.5116 20.2768 52.6191 19.7735 52.8279C19.2702 53.0367 18.8129 53.3428 18.4277 53.7286C18.0426 54.1144 17.7371 54.5724 17.5287 55.0765C17.3204 55.5806 17.2132 56.1209 17.2134 56.6664V57.4829C17.2132 58.0285 17.3204 58.5687 17.5287 59.0728C17.7371 59.5769 18.0426 60.0349 18.4277 60.4208C18.8129 60.8066 19.2702 61.1126 19.7735 61.3215C20.2768 61.5303 20.8162 61.6377 21.361 61.6377H72.7997C73.8998 61.6374 74.9548 61.1995 75.7325 60.4204C76.5103 59.6412 76.9473 58.5846 76.9473 57.4829V56.6664C76.9473 55.5647 76.5103 54.5081 75.7325 53.729C74.9548 52.9498 73.8998 52.5119 72.7997 52.5116H21.361Z" fill="#353E40"/>
<path d="M47.685 69.7433C46.5849 69.7433 45.5298 70.1808 44.7518 70.9597C43.9737 71.7386 43.5365 72.7951 43.5361 73.8968V74.7121C43.5361 75.8141 43.9732 76.871 44.7512 77.6504C45.5293 78.4298 46.5845 78.8678 47.685 78.8681H72.7985C73.3434 78.8681 73.883 78.7606 74.3863 78.5517C74.8897 78.3428 75.3471 78.0367 75.7322 77.6507C76.1174 77.2647 76.4229 76.8066 76.6311 76.3023C76.8394 75.7981 76.9465 75.2577 76.9461 74.7121V73.8968C76.9463 73.3513 76.8391 72.8111 76.6308 72.3071C76.4224 71.8031 76.1169 71.3452 75.7317 70.9595C75.3465 70.5737 74.8892 70.2678 74.386 70.0591C73.8827 69.8504 73.3432 69.7431 72.7985 69.7433H47.685Z" fill="#353E40"/>
<path d="M27.4356 69.7433C26.8906 69.7428 26.3508 69.8498 25.8472 70.0583C25.3435 70.2669 24.8859 70.5727 24.5003 70.9585C24.1148 71.3442 23.8089 71.8023 23.6003 72.3065C23.3916 72.8106 23.2842 73.3511 23.2842 73.8968V74.7121C23.284 75.2578 23.3912 75.7982 23.5996 76.3024C23.8081 76.8067 24.1136 77.2648 24.4989 77.6508C24.8842 78.0367 25.3416 78.3429 25.8451 78.5518C26.3485 78.7606 26.8881 78.8681 27.4331 78.8681H35.3371C36.4375 78.8678 37.4928 78.4298 38.2708 77.6504C39.0489 76.871 39.4859 75.8141 39.4859 74.7121V73.8968C39.4859 73.3513 39.3786 72.811 39.1701 72.307C38.9616 71.803 38.6559 71.3451 38.2707 70.9594C37.8854 70.5737 37.428 70.2677 36.9247 70.0591C36.4213 69.8504 35.8818 69.7431 35.3371 69.7433H27.4356Z" fill="#353E40"/>
<path d="M216.419 80.4784H230.184V23.2313H216.419V80.4784ZM277.138 23.2313L262.041 64.6908L246.945 23.2313H232.07L254.492 80.4784H269.255L291.679 23.2313H277.138ZM376.154 22.5644C368.974 22.5644 364.015 25.6027 361.279 31.6792V23.2313H347.622V80.4784H361.383V52.4672C361.383 41.5001 366.34 36.0161 376.255 36.0153H379.919V22.5682L376.154 22.5644ZM153.036 37.1259C155.656 35.0647 158.92 34.0012 162.249 34.1249C165.521 33.9455 168.731 35.0643 171.184 37.2388C172.307 38.3732 173.178 39.7316 173.742 41.2254C174.306 42.7193 174.55 44.3153 174.458 45.9098H148.484C148.837 42.5092 150.466 39.3697 153.041 37.1259M142.717 30.178C137.461 35.4794 134.834 42.8331 134.835 52.239C134.835 61.5046 137.425 68.7315 142.605 73.9196C145.141 76.4764 148.173 78.4859 151.514 79.8243C154.855 81.1627 158.435 81.8017 162.032 81.7019C167.793 81.7925 173.445 80.1249 178.237 76.9207C182.945 73.6951 186.27 68.8153 187.553 63.2492H174.682C172.831 67.6225 168.798 69.8088 162.581 69.8079C158.791 70.0134 155.07 68.7385 152.199 66.2515C149.647 63.8798 148.297 60.4709 148.148 56.0249H187.999V50.3549C187.999 41.4621 185.575 34.5513 180.728 29.6227C178.34 27.1885 175.476 25.2753 172.314 24.0033C169.153 22.7312 165.763 22.1278 162.357 22.231C158.714 22.1353 155.089 22.7912 151.71 24.1579C148.33 25.5247 145.267 27.5729 142.712 30.1755M307.107 37.1234C309.726 35.0628 312.991 33.9994 316.32 34.1224C319.591 33.9434 322.802 35.0621 325.256 37.2363C326.378 38.3708 327.25 39.7291 327.814 41.223C328.378 42.7168 328.623 44.3128 328.531 45.9072H302.557C302.908 42.5078 304.534 39.3685 307.107 37.1234ZM296.783 30.1755C291.529 35.4769 288.902 42.8305 288.902 52.2365C288.902 61.5021 291.493 68.729 296.674 73.9171C299.21 76.474 302.242 78.4836 305.583 79.822C308.923 81.1605 312.503 81.7994 316.1 81.6993C321.861 81.7901 327.513 80.1225 332.305 76.9182C337.016 73.695 340.346 68.816 341.632 63.2492H328.753C326.902 67.6225 322.868 69.8088 316.653 69.8079C312.863 70.0134 309.141 68.7385 306.271 66.2515C303.716 63.8798 302.366 60.4709 302.22 56.0249H342.069V50.3549C342.069 41.4621 339.646 34.5513 334.801 29.6227C332.413 27.1889 329.548 25.2758 326.387 24.0038C323.225 22.7318 319.836 22.1282 316.43 22.231C312.786 22.135 309.161 22.7908 305.78 24.1578C302.4 25.5247 299.337 27.5735 296.781 30.1767M81.2167 16.2288H93.7608C101.456 16.2288 107.339 18.489 111.41 23.0094C115.539 27.6902 117.724 33.7756 117.516 40.018C117.696 47.0035 115.261 53.8039 110.689 59.083C106.141 64.3066 99.7577 66.9184 91.5401 66.9184H81.2167V16.2288ZM93.9228 2.6626C93.6848 2.6626 93.4455 2.6626 93.205 2.6626H66.7861V80.4784H91.4287C99.2488 80.8082 106.992 78.8171 113.686 74.7552C119.684 71.1451 124.533 65.9019 127.668 59.6371C130.662 53.5377 132.165 46.8133 132.054 40.018C132.232 35.1197 131.419 30.236 129.664 25.6605C127.909 21.0849 125.249 16.912 121.842 13.3926C115.025 6.23927 105.72 2.6626 93.9254 2.6626M193.554 80.4796H207.316V1.4429H193.551L193.554 80.4796ZM215.977 15.6735H230.629V6.10352e-05H215.975L215.977 15.6735Z" fill="#353E40"/>
</svg>
