<svg xmlns="http://www.w3.org/2000/svg" fill="#5e676f" width="30px" height="30px" viewBox="0 0 64 80" x="0px" y="0px"><path d="M18,24h6a1,1,0,0,0,1-1V17a1,1,0,0,0-1-1H18a1,1,0,0,0-1,1v6A1,1,0,0,0,18,24Zm1-6h4v4H19Z"/><path d="M3,11H6v2a1,1,0,0,0,1,1h5V61a1,1,0,0,0,1,1H51a1,1,0,0,0,1-1V14h4a1,1,0,0,0,1-1V11h3a1,1,0,0,0,1-1V6a1,1,0,0,0-1-1H57V3a1,1,0,0,0-1-1H7A1,1,0,0,0,6,3V5H3A1,1,0,0,0,2,6v4A1,1,0,0,0,3,11ZM59,7V9H57V7ZM50,60H14V14H50ZM8,4H55v8H8ZM4,7H6V9H4Z"/><rect x="29" y="19" width="16" height="2"/><path d="M18,38h6a1,1,0,0,0,1-1V31a1,1,0,0,0-1-1H18a1,1,0,0,0-1,1v6A1,1,0,0,0,18,38Zm1-6h4v4H19Z"/><rect x="29" y="33" width="16" height="2"/><path d="M18,52h6a1,1,0,0,0,1-1V45a1,1,0,0,0-1-1H18a1,1,0,0,0-1,1v6A1,1,0,0,0,18,52Zm1-6h4v4H19Z"/><rect x="29" y="47" width="16" height="2"/></svg>