<svg xmlns="http://www.w3.org/2000/svg" width="58.858" height="60.97" viewBox="0 0 58.858 60.97">
  <path id="Path_30" data-name="Path 30" d="M42.164-82.78l-2.345-.112a5.55,5.55,0,0,1-3.629-1.061,4.474,4.474,0,0,1-1.284-3.629V-103.55a3.748,3.748,0,0,0-.726-2.513,3.532,3.532,0,0,0-2.736-.837H15.922a4.3,4.3,0,0,1-3.35-1.228,5.14,5.14,0,0,1-1.117-3.573v-2.345a5.259,5.259,0,0,1,1.117-3.8,4.55,4.55,0,0,1,3.35-1.117H30.327a4.58,4.58,0,0,1,3.462,1.173,5.288,5.288,0,0,1,1.117,3.741v3.573a4.151,4.151,0,0,0,.726,2.736,3.028,3.028,0,0,0,2.4.837h4.243a4.429,4.429,0,0,1,3.518,1.228,5.32,5.32,0,0,1,1.061,3.573V-87.47a4.492,4.492,0,0,1-1.117,3.462A6.12,6.12,0,0,1,42.164-82.78Zm9.715-24.12q-2.792,0-3.908-1.228a5.14,5.14,0,0,1-1.117-3.573v-3.8q0-2.122-.838-2.792a4.406,4.406,0,0,0-2.736-.67H39.819a4.591,4.591,0,0,1-3.629-1.452,4.906,4.906,0,0,1-1.284-3.35v-14.405a5.9,5.9,0,0,1,1.228-3.853,4.474,4.474,0,0,1,3.685-1.508h2.345a4.224,4.224,0,0,1,3.573,1.452,6.057,6.057,0,0,1,1.117,3.8v15.745a3.555,3.555,0,0,0,.838,2.68,4.146,4.146,0,0,0,2.624.893H64.944A6.541,6.541,0,0,1,68.8-117.9q1.507,1.061,1.507,3.853v2.345a4.377,4.377,0,0,1-1.507,3.518,5.569,5.569,0,0,1-3.741,1.284ZM27.312-120.523a4.719,4.719,0,0,1-3.462-1.117,4.386,4.386,0,0,1-1.117-3.238v-3.573a4.379,4.379,0,0,0-.726-2.513,2.9,2.9,0,0,0-2.289-.726H16.257a4.527,4.527,0,0,1-3.35-1.228,4.517,4.517,0,0,1-1.117-3.573v-2.68a5.059,5.059,0,0,1,1.005-3.462,4.324,4.324,0,0,1,3.35-1.117h2.233a4.424,4.424,0,0,1,3.183,1.117,4.58,4.58,0,0,1,1.173,3.462v3.908a3.326,3.326,0,0,0,.782,2.736,3.974,3.974,0,0,0,2.792.838h3.127a4.564,4.564,0,0,1,3.462,1.284,4.878,4.878,0,0,1,1.228,3.517v2.01a4.694,4.694,0,0,1-1.228,3.294,4.878,4.878,0,0,1-3.462,1.061Zm-.223,14.517H29.21a4.878,4.878,0,0,1,3.462,1.061,4.7,4.7,0,0,1,1.228,3.294v2.01a4.879,4.879,0,0,1-1.228,3.518A4.564,4.564,0,0,1,29.21-94.84H26.083A3.974,3.974,0,0,0,23.292-94a3.326,3.326,0,0,0-.782,2.736v3.908A4.58,4.58,0,0,1,21.338-83.9a4.424,4.424,0,0,1-3.183,1.117H15.922a4.324,4.324,0,0,1-3.35-1.117,5.059,5.059,0,0,1-1.005-3.462v-2.68a4.517,4.517,0,0,1,1.117-3.573,4.527,4.527,0,0,1,3.35-1.228H19.5a2.9,2.9,0,0,0,2.289-.726,4.378,4.378,0,0,0,.726-2.512v-3.573a4.386,4.386,0,0,1,1.117-3.238A4.72,4.72,0,0,1,27.088-106.007Zm27.693-14.517H52.66a4.878,4.878,0,0,1-3.462-1.061,4.694,4.694,0,0,1-1.228-3.294v-2.01a4.878,4.878,0,0,1,1.228-3.517,4.563,4.563,0,0,1,3.462-1.284h3.127a3.974,3.974,0,0,0,2.792-.838,3.326,3.326,0,0,0,.782-2.736v-3.908a4.58,4.58,0,0,1,1.173-3.462,4.424,4.424,0,0,1,3.183-1.117h2.233a4.324,4.324,0,0,1,3.35,1.117,5.059,5.059,0,0,1,1.005,3.462v2.68a4.517,4.517,0,0,1-1.117,3.573,4.527,4.527,0,0,1-3.35,1.228H62.375a2.9,2.9,0,0,0-2.289.726,4.379,4.379,0,0,0-.726,2.513v3.573a4.386,4.386,0,0,1-1.117,3.238A4.719,4.719,0,0,1,54.782-120.523Zm0,14.517a4.72,4.72,0,0,1,3.462,1.117,4.386,4.386,0,0,1,1.117,3.238v3.573a4.378,4.378,0,0,0,.726,2.512,2.9,2.9,0,0,0,2.289.726h3.462a4.527,4.527,0,0,1,3.35,1.228A4.517,4.517,0,0,1,70.3-90.038v2.68A5.059,5.059,0,0,1,69.3-83.9a4.324,4.324,0,0,1-3.35,1.117H63.715A4.424,4.424,0,0,1,60.533-83.9a4.58,4.58,0,0,1-1.173-3.462v-3.908A3.326,3.326,0,0,0,58.579-94a3.974,3.974,0,0,0-2.792-.838H52.66A4.564,4.564,0,0,1,49.2-96.124a4.879,4.879,0,0,1-1.228-3.518v-2.01a4.7,4.7,0,0,1,1.228-3.294,4.878,4.878,0,0,1,3.462-1.061Z" transform="translate(-11.455 143.75)" fill="#f7f7d6"/>
</svg>
